General
Complete name :
Diary.of.A.Sex.Addict(2001)DVDRip.aaaevilacharya.mkv
Format                           : Matroska
File size                        : 689 MiB
Duration                         : 1h 41mn
Overall bit rate                 : 951 Kbps
Movie name                       : aaaevilacharya{TiRG}
Encoded date                     : UTC 2010-12-24 16:39:15


Video
ID                               : 1
Format                           : MPEG-4 Visual
Format profile                   : Simple@L3
Format settings, BVOP            : Yes
Format settings, QPel            : No
Format settings, GMC             : No warppoints
Format settings, Matrix          : Default (H.263)
Codec ID                         : XVID
Codec ID/Hint                    : XviD
Duration                         : 1h 41mn
Bit rate                         : 804 Kbps
Width                            : 640 pixels
Height                           : 272 pixels
Display aspect ratio             : 2.35:1
Frame rate                       : 24.000 fps
Color space                      : YUV
Chroma subsampling               : 4:2:0
Bit depth                        : 8 bits
Scan type                        : Progressive
Bits/(Pixel*Frame)               : 0.192
Stream size                      : 583 MiB (85%)
Title                            : aaaevilacharya{TiRG}
Writing library                  : XviD 1.0.3 (UTC 2004-12-20)
Language                         : English

Audio
ID                               : 2
Format                           : MPEG Audio
Format version                   : Version 1
Format profile                   : Layer 3
Mode                             : Joint stereo
Mode extension                   : MS Stereo
Codec ID                         : A_MPEG/L3
Codec ID/Hint                    : MP3
Duration                         : 1h 42mn
Bit rate mode                    : Variable
Bit rate                         : 128 Kbps
Channel(s)                       : 2 channels
Sampling rate                    : 48.0 KHz
Stream size                      : 93.5 MiB (14%)
Title                            : DIARY OF A SEX ADDICT.aaaevilacharya{TiRG}
Writing library                  : LAME3.90.
Encoding settings                : -m j -V 4 -q 2 -lowpass 17.6 --abr 128
Language                         : English


SCREENSHOTS 
http://img838.imageshack.us/img838/6016/vlcsnap2010122411h59m00.png
http://img258.imageshack.us/img258/7125/000ef1a8.jpg
http://img526.imageshack.us/img526/4818/vlcsnap2010122411h47m23.png
http://img5.imageshack.us/img5/6715/vlcsnap2010122411h47m41.png
http://img153.imageshack.us/img153/2230/vlcsnap2010122411h47m56.png
http://img199.imageshack.us/img199/4938/vlcsnap2010122411h48m07.png
http://img692.imageshack.us/img692/8972/vlcsnap2010122411h56m05.png
http://img826.imageshack.us/img826/5023/vlcsnap2010122411h56m30.png
http://img6.imageshack.us/img6/694/vlcsnap2010122411h57m10.png
http://img543.imageshack.us/img543/2739/vlcsnap2010122411h57m48.png
http://img258.imageshack.us/img258/2766/vlcsnap2010122411h58m30.png
http://img255.imageshack.us/img255/2430/vlcsnap2010122411h58m53.png
